# xmcd CD database file
#
# Track frame offsets:
#	150
#	18025
#	34040
#	55512
#	73752
#	94130
#	118737
#	138710
#	157590
#	177832
#	202660
#	222722
#
# Disc length: 3176 seconds
#
# Revision: 1
# Processed by: cddbd v1.5.2PL0 Copyright (c) Steve Scherf et al.
# Submitted via: CDex 1.51
#
DISCID=9d0c660c
DTITLE=Dave Navarro - Trust No One
DYEAR=2001
DGENRE=Rock
TTITLE0=Rexall
TTITLE1=Hungry
TTITLE2=Sunny Day
TTITLE3=Mourining Son
TTITLE4=Everything
TTITLE5=Not For Nothing
TTITLE6=Avoiding The Angel
TTITLE7=Very Little Daylight
TTITLE8=Venus In Furs
TTITLE9=Slow Motion Sickness
TTITLE10=The Bed
TTITLE11=Somebody Else
EXTD=YEAR: 2001
EXTT0=
EXTT1=
EXTT2=
EXTT3=
EXTT4=
EXTT5=
EXTT6=
EXTT7=
EXTT8=
EXTT9=
EXTT10=
EXTT11=
PLAYORDER=
